<?xml version="1.0" standalone="no"?>
<!DOCTYPE svg PUBLIC "-//W3C//DTD SVG 20010904//EN"
 "http://www.w3.org/TR/2001/REC-SVG-20010904/DTD/svg10.dtd">
<svg version="1.0" xmlns="http://www.w3.org/2000/svg"
 width="300.000000pt" height="300.000000pt" viewBox="0 0 300.000000 300.000000"
 preserveAspectRatio="xMidYMid meet">
<metadata>
Created by potrace 1.10, written by Peter Selinger 2001-2011
</metadata>
<g transform="translate(0.000000,300.000000) scale(0.100000,-0.100000)"
fill="#000000" stroke="none">
<path d="M1468 1899 c-214 -31 -347 -228 -324 -483 20 -220 134 -349 335 -378
221 -31 396 83 444 289 29 125 14 290 -36 385 -26 51 -100 128 -142 147 -16 7
-38 17 -47 22 -16 8 -64 16 -138 23 -19 2 -61 0 -92 -5z m173 -33 c186 -43
280 -198 267 -439 -8 -127 -35 -195 -108 -269 -48 -48 -68 -60 -130 -79 -59
-18 -88 -21 -155 -17 -143 9 -240 69 -295 181 -104 213 -40 504 129 592 83 42
195 54 292 31z"/>
<path d="M1465 1728 c-37 -13 -82 -54 -101 -90 -41 -79 -37 -270 9 -352 58
-105 256 -117 324 -20 60 87 68 271 17 380 -26 54 -84 88 -158 91 -33 1 -74
-2 -91 -9z m166 -40 c63 -35 84 -90 84 -218 0 -90 -3 -112 -24 -153 -29 -60
-77 -87 -154 -87 -104 0 -150 48 -167 172 -16 117 6 224 57 270 47 43 143 51
204 16z"/>
<path d="M204 1890 c-53 -9 -54 -20 -52 -437 3 -443 -5 -412 109 -413 97 0
103 9 109 169 l5 126 105 6 c157 8 227 47 277 156 27 58 32 142 14 209 -21 79
-97 151 -181 172 -46 12 -334 21 -386 12z m418 -52 c130 -60 174 -222 97 -356
-23 -41 -40 -56 -90 -81 -59 -29 -69 -31 -176 -31 l-113 0 0 -150 0 -150 -80
0 -80 0 0 401 0 401 193 -4 c182 -4 195 -5 249 -30z"/>
<path d="M340 1615 l0 -125 75 0 c80 0 139 17 161 48 20 27 26 78 14 122 -17
62 -54 80 -162 80 l-88 0 0 -125z m197 71 c24 -20 28 -32 27 -71 -1 -71 -26
-90 -117 -90 l-72 0 -3 93 -3 92 70 0 c59 0 74 -4 98 -24z"/>
<path d="M2399 1890 c-47 -11 -49 -28 -47 -433 l3 -379 24 -19 c21 -18 42 -19
261 -19 284 0 279 -2 281 98 1 43 -3 68 -12 77 -11 11 -50 15 -163 16 -82 0
-155 3 -163 6 -10 4 -13 64 -13 313 0 353 4 337 -91 342 -31 2 -67 1 -80 -2z
m141 -356 l0 -336 180 4 180 3 0 -67 0 -68 -260 0 -260 0 0 400 0 400 80 0 80
0 0 -336z"/>
<path d="M901 1263 c-79 -39 -92 -131 -27 -190 30 -27 44 -33 82 -33 41 0 51
5 85 39 30 30 39 46 39 72 0 46 -19 79 -59 106 -40 27 -73 29 -120 6z m108
-28 c33 -16 41 -33 41 -81 0 -52 -36 -84 -95 -84 -61 0 -95 32 -95 89 0 72 79
113 149 76z"/>
<path d="M2071 1263 c-40 -20 -71 -67 -71 -106 0 -60 66 -117 136 -117 29 0
44 8 75 39 32 32 39 46 39 78 0 46 -26 85 -70 108 -37 19 -67 19 -109 -2z
m108 -28 c33 -16 41 -33 41 -81 0 -52 -36 -84 -95 -84 -90 0 -129 88 -66 151
33 33 75 38 120 14z"/>
</g>
</svg>
